<svg width="26" height="24" viewBox="0 0 26 24" fill="none" xmlns="http://www.w3.org/2000/svg">
<path d="M4.82625 0.56C4.97882 0.384375 5.16821 0.243377 5.38141 0.146706C5.5946 0.0500345 5.82653 -1.52011e-05 6.06125 3.46317e-09H19.9388C20.1735 -1.52011e-05 20.4054 0.0500345 20.6186 0.146706C20.8318 0.243377 21.0212 0.384375 21.1737 0.56L25.4134 5.4304C25.7919 5.86533 26 6.41922 26 6.992V7.4C26.0001 8.19196 25.7489 8.96416 25.2815 9.60868C24.814 10.2532 24.1538 10.7378 23.393 10.9948C22.6322 11.2518 21.8088 11.2683 21.038 11.042C20.2672 10.8158 19.5874 10.358 19.0938 9.7328C18.7333 10.1901 18.2713 10.5601 17.7432 10.8144C17.215 11.0688 16.6348 11.2006 16.0469 11.2C15.459 11.2006 14.8787 11.0688 14.3506 10.8144C13.8224 10.5601 13.3604 10.1901 13 9.7328C12.6396 10.1901 12.1776 10.5601 11.6494 10.8144C11.1213 11.0688 10.541 11.2006 9.95312 11.2C9.36521 11.2006 8.78495 11.0688 8.25681 10.8144C7.72868 10.5601 7.26669 10.1901 6.90625 9.7328C6.41256 10.358 5.73281 10.8158 4.962 11.042C4.19119 11.2683 3.36784 11.2518 2.60703 10.9948C1.84622 10.7378 1.18596 10.2532 0.718546 9.60868C0.25113 8.96416 -8.87227e-05 8.19196 2.35049e-08 7.4V6.992C2.04872e-05 6.41922 0.208092 5.86533 0.586625 5.4304L4.82625 0.56ZM7.71875 7.4C7.71875 7.98348 7.95416 8.54305 8.37318 8.95564C8.79221 9.36822 9.36053 9.6 9.95312 9.6C10.5457 9.6 11.114 9.36822 11.5331 8.95564C11.9521 8.54305 12.1875 7.98348 12.1875 7.4C12.1875 7.18783 12.2731 6.98434 12.4255 6.83431C12.5778 6.68429 12.7845 6.6 13 6.6C13.2155 6.6 13.4222 6.68429 13.5745 6.83431C13.7269 6.98434 13.8125 7.18783 13.8125 7.4C13.8125 7.98348 14.0479 8.54305 14.4669 8.95564C14.886 9.36822 15.4543 9.6 16.0469 9.6C16.6395 9.6 17.2078 9.36822 17.6268 8.95564C18.0458 8.54305 18.2812 7.98348 18.2812 7.4C18.2812 7.18783 18.3669 6.98434 18.5192 6.83431C18.6716 6.68429 18.8783 6.6 19.0938 6.6C19.3092 6.6 19.5159 6.68429 19.6683 6.83431C19.8206 6.98434 19.9062 7.18783 19.9062 7.4C19.9062 7.98348 20.1417 8.54305 20.5607 8.95564C20.9797 9.36822 21.548 9.6 22.1406 9.6C22.7332 9.6 23.3015 9.36822 23.7206 8.95564C24.1396 8.54305 24.375 7.98348 24.375 7.4V6.992C24.375 6.80132 24.3059 6.61691 24.18 6.472L19.9388 1.6H6.06125L1.82 6.472C1.69414 6.61691 1.62499 6.80132 1.625 6.992V7.4C1.625 7.98348 1.86041 8.54305 2.27943 8.95564C2.69846 9.36822 3.26678 9.6 3.85938 9.6C4.45197 9.6 5.02029 9.36822 5.43932 8.95564C5.85834 8.54305 6.09375 7.98348 6.09375 7.4C6.09375 7.18783 6.17935 6.98434 6.33173 6.83431C6.4841 6.68429 6.69076 6.6 6.90625 6.6C7.12174 6.6 7.3284 6.68429 7.48077 6.83431C7.63315 6.98434 7.71875 7.18783 7.71875 7.4ZM2.4375 12C2.65299 12 2.85965 12.0843 3.01202 12.2343C3.1644 12.3843 3.25 12.5878 3.25 12.8V22.4H4.875V14.4C4.875 13.9757 5.0462 13.5687 5.35095 13.2686C5.6557 12.9686 6.06902 12.8 6.5 12.8H11.375C11.806 12.8 12.2193 12.9686 12.524 13.2686C12.8288 13.5687 13 13.9757 13 14.4V22.4H22.75V12.8C22.75 12.5878 22.8356 12.3843 22.988 12.2343C23.1403 12.0843 23.347 12 23.5625 12C23.778 12 23.9847 12.0843 24.137 12.2343C24.2894 12.3843 24.375 12.5878 24.375 12.8V22.4H25.1875C25.403 22.4 25.6097 22.4843 25.762 22.6343C25.9144 22.7843 26 22.9878 26 23.2C26 23.4122 25.9144 23.6157 25.762 23.7657C25.6097 23.9157 25.403 24 25.1875 24H0.8125C0.597012 24 0.390349 23.9157 0.237976 23.7657C0.0856025 23.6157 2.35049e-08 23.4122 2.35049e-08 23.2C2.35049e-08 22.9878 0.0856025 22.7843 0.237976 22.6343C0.390349 22.4843 0.597012 22.4 0.8125 22.4H1.625V12.8C1.625 12.5878 1.7106 12.3843 1.86298 12.2343C2.01535 12.0843 2.22201 12 2.4375 12ZM6.5 22.4H11.375V14.4H6.5V22.4ZM14.625 14.4C14.625 13.9757 14.7962 13.5687 15.101 13.2686C15.4057 12.9686 15.819 12.8 16.25 12.8H19.5C19.931 12.8 20.3443 12.9686 20.649 13.2686C20.9538 13.5687 21.125 13.9757 21.125 14.4V19.2C21.125 19.6243 20.9538 20.0313 20.649 20.3314C20.3443 20.6314 19.931 20.8 19.5 20.8H16.25C15.819 20.8 15.4057 20.6314 15.101 20.3314C14.7962 20.0313 14.625 19.6243 14.625 19.2V14.4ZM19.5 14.4H16.25V19.2H19.5V14.4Z" fill="black"/>
</svg>
